<svg version="1.2" xmlns="http://www.w3.org/2000/svg" viewBox="0 0 500 145" width="500" height="145">
	<style>
		.s0 { fill: #e82d2d } 
		.s1 { fill: #e8eaea } 
		.s2 { fill: #010101 } 
	</style>
	<g id="Sunbites Logo">
		<path id="Path 0" class="s0" d="m271 33.74c3.02 0.2 7.52 0.2 10-0.01 2.48-0.2 0-0.37-5.5-0.36-5.5 0-7.52 0.17-4.5 0.37zm106.06 16.5c-2.44 1.24-5.28 3.38-6.3 4.76-1.03 1.37-2.29 4.75-2.81 7.5-0.51 2.75-0.65 6.8-0.3 9 0.35 2.2 1.47 5.69 2.49 7.75 1.02 2.06 3.55 4.76 5.61 6 3.06 1.83 5.23 2.25 11.75 2.25 4.98 0 9.24-0.57 11.29-1.5 3.09-1.41 3.29-1.8 3.24-6.5l-0.04-5c-13.81 0-16.4-0.38-16.64-1.25-0.26-0.94 2.23-1.25 10.15-1.25h10.5c-0.02-8.91-0.45-12.18-0.95-13-0.78-1.26-1.34-1.06-3.49 1.25-1.41 1.51-3.57 2.76-4.81 2.78-1.4 0.01-2.82-0.97-3.75-2.59-0.82-1.44-3.02-3.59-4.87-4.78-2.87-1.84-3.28-2.57-2.75-4.91 0.53-2.37 0.31-2.75-1.63-2.76-1.24 0-4.25 1.01-6.69 2.25z"/>
		<path id="Path 1" class="s1" d="m0-83v79c37.33 0 38 0.07 38 2 0 1.96 0.74 2 40.75 2.21 22.41 0.12 45.47 0.12 51.25 0.02 5.78-0.11 92.29-0.2 192.25-0.21l181.75-0.02v-162h-504zm151.97 115.25c0.02 0.41 2.62 7.11 5.78 14.89 3.16 7.78 5.97 14.25 6.25 14.38 0.28 0.13-2.14-6.35-5.36-14.39-3.22-8.05-6.05-14.85-6.28-15.13-0.23-0.28-0.4-0.16-0.39 0.25zm134.21 7.5l-0.18 5.25c10.19-0.01 13.83 0.63 16.11 1.74 1.99 0.97 3.45 1.42 3.25 1.01-0.2-0.41-1.93-1.43-3.86-2.25-1.93-0.82-5.98-1.5-9-1.5h-5.5l-0.64-9.5zm48.99 0.5c-0.15 4.09-0.48 4.8-2.42 5.11l-2.25 0.37c3.49 0.21 4.75-0.29 5.05-0.98 0.3-0.69 0.37-3.05 0.16-5.25-0.37-3.93-0.38-3.92-0.54 0.75zm-91.67 5.64c-2.2 1.07-3.77 2-3.5 2.05 0.28 0.06 2.19-0.58 4.25-1.42 2.06-0.83 5.33-1.52 7.25-1.52 1.93 0 4.74 0.48 6.25 1.06 2.27 0.88 2.52 0.84 1.44-0.25-0.72-0.72-3.65-1.44-6.5-1.59-3.57-0.19-6.44 0.33-9.19 1.67zm134-0.68c-1.65 0.57-4.46 2.11-6.25 3.42l-3.25 2.37c-0.13-3.67-0.35-3.94-0.67-3-0.28 0.82-0.24 2.06 0.08 2.75 0.43 0.91 1.48 0.59 3.84-1.15 1.79-1.32 5.05-2.89 7.25-3.49 2.2-0.6 5.13-1.25 6.5-1.46q2.56-0.38-1-0.43c-1.92-0.04-4.85 0.41-6.5 0.99zm-188 0.54c8.8 0.16 23.43 0.16 32.5 0 9.08-0.17 1.88-0.3-16-0.3-17.87 0-25.3 0.13-16.5 0.3zm-16.12 12.75c0 6.6 0.17 9.07 0.36 5.5 0.2-3.57 0.2-8.97 0-12-0.2-3.03-0.36-0.1-0.36 6.5zm274 2.5c0 6.32 0.16 8.8 0.36 5.5 0.2-3.3 0.2-8.47 0-11.5-0.2-3.03-0.36-0.32-0.36 6zm-273.53 17.5c-0.28 1.65-0.24 6.38 0.1 10.5l0.6 7.5c0.84-12.4 0.79-17.13 0.44-18.5-0.63-2.47-0.64-2.47-1.14 0.5zm-34.35 52.63c-4.4 2.18-6.87 3.66-5.5 3.29 1.38-0.38 5.09-1.97 8.25-3.55 3.16-1.58 5.75-3.1 5.75-3.37 0-0.27-0.11-0.46-0.25-0.41-0.14 0.04-3.85 1.86-8.25 4.04zm-66.13 12.12c0.58 1.61-0.51 1.77-13.12 2-7.56 0.14-18.81 0.14-25 0-7-0.16-11.25 0.13-11.25 0.75 0 0.56 2.67 1 6 1h6v8c-11.33 0-12-0.22-12-2 0-1.89-0.67-2-12-2h-12v191h504v-197c-321.24-0.36-417.65-0.34-421.5-0.18-5.79 0.24-7.24-0.02-8.38-1.52-1.27-1.64-1.33-1.65-0.75-0.05z"/>
		<path id="Path 2" class="s2" d="m120.5 1.02c-4.4 0.43-12.72 1.91-18.5 3.29-5.78 1.38-14.55 4.13-19.5 6.13-4.95 1.99-11.92 5.34-15.5 7.45-3.58 2.11-9.2 6.31-12.5 9.33-4.5 4.12-6.86 7.33-9.44 12.88-2.66 5.73-3.54 9.1-3.89 14.9-0.35 5.74 0.04 9.15 1.64 14.5 1.16 3.85 4.03 9.95 6.39 13.55 2.37 3.6 4.43 7.2 4.59 8 0.16 0.8 4.84 12.93 10.4 26.95 5.56 14.02 10.5 25.95 10.99 26.5 0.58 0.66 5.68 0.39 15.1-0.82 7.82-1 17.82-2.66 22.22-3.7 4.4-1.04 11.15-2.97 15-4.29 3.85-1.32 9.47-3.56 12.5-4.99 3.03-1.43 8.31-4.42 11.75-6.65 3.44-2.23 8.05-5.85 10.25-8.05 2.2-2.2 5.07-5.69 6.38-7.75 1.31-2.06 3.13-6.23 4.04-9.25 1.07-3.54 1.56-8.08 1.37-12.75-0.16-3.99-0.63-7.25-1.04-7.25-0.41 0-0.75-0.56-0.76-1.25-0.01-0.69-1.16-3.72-2.57-6.75-1.4-3.03-3.39-6.4-4.42-7.5-1.02-1.1-7.27-15.72-13.87-32.5l-12.01-30.5c-8.23-0.21-14.22 0.08-18.62 0.52zm195.46 32.73c-2.95 2.52-3.17 3.1-2.59 7 0.49 3.29 0.29 4.36-0.87 4.75-0.89 0.3-1.5 1.72-1.5 3.5 0 1.72-0.54 3.01-1.25 3.03-0.69 0.02-2.15-0.94-3.25-2.14-1.1-1.19-3.46-2.78-5.25-3.53-1.79-0.75-5.95-1.36-9.25-1.36h-6v-11h-21c0 11.89-0.46 15.31-1.11 15.75-0.61 0.41-1.4 0.25-1.75-0.36-0.35-0.61-2.1-1.85-3.89-2.75-1.79-0.9-4.49-1.65-6-1.66-1.51-0.01-4.78 0.68-7.25 1.54-2.88 1-4.59 1.18-4.75 0.52q-0.24-1.04-33.25-1.04h-33c0.48 31.42 0.67 32.9 3 37.41 1.58 3.08 3.78 5.56 6 6.78 2.64 1.45 4.66 1.79 8.25 1.37 2.61-0.31 5.95-1.12 7.42-1.81 2.14-1 2.74-1 3 0 0.26 0.98 10.38 1.24 46.58 1.18 25.44-0.04 48.05-0.49 50.25-1.01 2.2-0.52 5.12-2.07 6.5-3.46 1.37-1.38 3.06-2.5 3.75-2.49 0.76 0.02 1.25 1.41 1.25 3.53v3.5h25c0-6.2 0.45-8 1-8 0.55 0 2.12 1.35 3.5 3 1.39 1.66 4.17 3.44 6.25 3.99 2.06 0.55 5.66 1 8 1 2.34 0.01 6.27-0.44 8.75-0.99 4.11-0.91 4.5-1.26 4.5-4 0-1.65 0.34-3.02 0.75-3.04 0.41-0.03 1.43 0.7 2.25 1.62 0.82 0.92 3.3 2.62 5.5 3.79 3.18 1.69 5.74 2.12 12.5 2.1 6.43-0.01 9.48-0.5 12.5-1.99 3.91-1.94 4.01-2.1 4.25-7.73 0.14-3.16 0.7-5.75 1.25-5.75 0.55 0 1.11 2.8 1.25 6.22l0.25 6.22c8.77 2.74 14.45 3.47 19.5 3.51 6.92 0.05 9.34-0.35 13-2.19 3.03-1.52 5.04-3.4 6.15-5.76 1.38-2.94 1.57-5.97 1.15-19l-0.49-15.5c-9.15-2.71-14.85-3.5-18.56-3.49-3.71 0-8.32 0.43-10.25 0.96-1.93 0.53-5.86 3.23-8.75 6-4.46 4.27-5.1 5.33-4.25 7.03 0.55 1.1 1 4.48 1 7.5v5.5c-18.42 0-20.91 0.31-20.65 1.25 0.24 0.87 2.83 1.25 8.49 1.25h8.15c0.09 9.7-0.11 10.09-3.2 11.5-2.05 0.93-6.31 1.5-11.29 1.5-6.52 0-8.69-0.42-11.75-2.25-2.06-1.24-4.59-3.94-5.61-6-1.02-2.06-2.14-5.55-2.49-7.75-0.35-2.2-0.21-6.25 0.3-9 0.52-2.75 1.8-6.12 2.85-7.5 1.05-1.37 3.21-3.28 4.8-4.23 1.6-0.95 4.89-2.08 7.31-2.5 2.43-0.42 4.57-1.33 4.75-2.02 0.21-0.78-0.7-1.25-2.41-1.24-1.51 0-4.44 0.45-6.5 1-2.06 0.54-5.1 2.12-6.75 3.49-1.65 1.38-3.45 2.28-4 2-0.55-0.27-1-1.62-1-3 0-2.11-0.47-2.5-3-2.5h-3v-13c-18.21 0.94-23.84 1.39-24.25 1.61-0.41 0.21-0.75 2.87-0.75 5.89 0 5.03-0.19 5.5-2.25 5.53-1.24 0.01-2.57-0.32-2.95-0.75-0.39-0.43-0.28-1.79 0.25-3.03 0.6-1.43 0.6-3.25-0.01-5-0.52-1.51-2.1-3.54-3.5-4.5-1.4-0.96-3.85-1.75-5.46-1.75-1.73 0-4.21 1.11-6.12 2.75z"/>
		<path id="Path 3" class="s0" d="m114.5 10.56c-4.95 0.78-13.05 2.56-18 3.97-4.95 1.4-12.6 4.33-17 6.5-4.4 2.17-10.59 5.98-13.75 8.46-3.16 2.48-7.21 6.56-9 9.06-1.79 2.5-4.02 6.66-4.96 9.25-0.94 2.58-1.74 6.95-1.77 9.7-0.03 2.75 0.85 7.93 1.96 11.5 1.12 3.57 3.6 8.64 5.52 11.25 1.93 2.61 5.64 5.97 8.25 7.47 3.92 2.25 6.23 2.78 13.25 3.07 5.07 0.22 11.33-0.24 15.5-1.12 3.85-0.81 7.56-1.29 8.25-1.07 0.69 0.22 1.24 0.74 1.23 1.15 0 0.41-0.34 1.29-0.75 1.94-0.4 0.66-5.01 2.34-10.23 3.74-5.22 1.4-11.97 2.81-15 3.13-3.03 0.32-6.85 0.73-8.5 0.91-1.65 0.18-2.92 0.71-2.82 1.18 0.1 0.47 3.18 8.5 6.85 17.85 3.66 9.35 6.73 17.13 6.82 17.3 0.08 0.16 5.1-0.2 11.15-0.8 6.05-0.6 14.83-1.99 19.5-3.09 4.67-1.1 12.55-3.63 17.5-5.62 4.95-1.99 11.7-5.2 15-7.14 3.3-1.94 8.39-5.8 11.32-8.59 3.03-2.88 6.44-7.43 7.92-10.56 2.26-4.77 2.54-6.42 2.11-12.5-0.33-4.65-1.42-9.02-3.23-13-1.5-3.3-3.95-7.28-5.43-8.84-1.48-1.56-4.38-3.7-6.44-4.75-2.67-1.36-5.83-1.91-11-1.9-3.99 0-10.85 0.87-15.25 1.92-6.13 1.46-8.29 1.64-9.26 0.74-1.02-0.94-1.02-1.43 0-2.49 0.69-0.73 4.75-2.42 9.01-3.75 4.26-1.34 11.8-2.99 16.76-3.68 4.95-0.69 9-1.7 9-2.25-0.01-0.55-3.51-9.78-7.78-20.5l-7.76-19.5c-7.73-0.27-14.02 0.28-18.97 1.06zm202.97 25.27c-1.01 1-1.76 2.92-1.68 4.25 0.08 1.33 0.95 3.17 1.93 4.08 0.98 0.91 2.46 1.75 3.28 1.87 0.82 0.11 2.06 0.15 2.75 0.09 0.69-0.07 2.15-1.02 3.25-2.12 1.1-1.1 2-2.9 2-4 0-1.1-0.9-2.9-2-4-1.1-1.1-3.28-2-4.85-2-1.57 0-3.68 0.82-4.68 1.83zm26.78 0.85l-5.25 0.32c0 11.33-0.22 12-2 12-1.83 0-2 0.67-2 8 0 6.92 0.27 8.17 2 9.25 1.6 0.99 2.01 2.33 2 6.5 0 2.89 0.68 6.82 1.5 8.75 1.03 2.41 2.67 4.01 5.25 5.12 2.6 1.12 5.58 1.48 9.75 1.17 3.3-0.25 6.56-0.75 7.25-1.12 0.8-0.43 1.25-2.99 1.25-7.17v-6.5c-6-0.46-6.54-0.93-6.75-3.25-0.23-2.52 0.04-2.75 3.25-2.75h3.5v-18h-6v-13c-6.59 0.29-10.86 0.51-13.75 0.68zm-76.42 15.07c-0.23 8.11-0.28 19.59-0.12 25.5l0.29 10.75c11.69 0 13.18-0.35 13.89-1.75 0.84-1.66 1.09-1.65 4.75 0.13 2.88 1.41 5 1.72 8.36 1.24 2.48-0.35 5.62-1.44 7-2.43 1.37-1 3.54-3.81 4.82-6.25 1.99-3.8 2.27-5.58 1.96-12.44-0.25-5.64-0.94-9.03-2.35-11.5-1.1-1.93-3.56-4.31-5.46-5.29-2.43-1.26-4.97-1.67-8.47-1.39-2.75 0.23-6.01 0.7-7.25 1.05-2.17 0.61-2.25 0.39-2.25-5.87v-6.5h-14.76zm156.46-3.88c-1.21 0.25-3.69 0.81-5.5 1.23-1.81 0.43-4.53 2.15-6.04 3.84-2.22 2.47-2.75 4.01-2.75 8.06 0 4.33 0.4 5.33 3 7.5 1.65 1.37 3.56 2.48 4.25 2.46 0.69-0.03 1.93 0.72 2.75 1.66 1.37 1.57 1.29 1.66-1 1.14-1.37-0.32-3.96-0.85-5.75-1.17l-3.25-0.59c0 12.65 0.15 13.06 2.75 14.14 1.51 0.63 6.8 1.35 11.75 1.59 6.68 0.34 10.1 0.04 13.25-1.14 2.96-1.11 4.74-2.57 5.87-4.84 1.09-2.18 1.44-4.57 1.05-7.25-0.31-2.2-1.38-4.59-2.37-5.31-0.99-0.72-3.04-1.51-4.55-1.75-1.77-0.28-2.48-0.85-2-1.58 0.47-0.71 2.14-0.9 4.5-0.5l3.75 0.64v-16c-7.36-1.45-11.3-2.03-13.5-2.23-2.2-0.2-4.99-0.16-6.21 0.1zm-179.22 1.49c-1.88 0.7-4.13 2.25-5 3.44-0.86 1.19-1.91 1.95-2.32 1.68-0.41-0.26-0.75-1.61-0.75-2.98 0-2.4-0.25-2.5-6.25-2.51l-6.25-0.01c-1.15 12.8-1.49 21.58-1.49 27.77l-0.01 11.25h18c0-16.09 0.38-19.2 1.25-19.65 0.69-0.36 1.82 0.2 2.52 1.25 0.77 1.16 1.26 5.13 1.25 10.15l-0.02 8.25h18c0-27.23-0.32-30.67-1.75-33.64-0.96-2-2.99-4.25-4.5-5-1.51-0.75-4.21-1.34-6-1.32-1.79 0.02-4.79 0.61-6.68 1.32zm-67.93 14.89c0.32 13.2 0.64 15.72 2.43 18.75 1.21 2.05 3.48 4.06 5.49 4.85 1.94 0.77 4.96 1.11 6.94 0.78 1.93-0.31 5.19-1.71 7.25-3.1 2.06-1.39 3.98-2.53 4.25-2.53 0.28 0 0.61 1.01 0.75 2.25 0.23 2.04 0.85 2.28 6.75 2.55l6.5 0.29c1.16-17.51 1.49-26.3 1.5-30.84v-8.25h-18c0 16.2-0.37 19.13-1.25 19.44-0.69 0.24-1.82-0.1-2.52-0.75-0.83-0.79-1.26-4.15-1.25-9.94l0.02-8.75h-19.22zm136.5-7c-0.34 4.54-0.63 13.31-0.64 19.5v11.25h19c0-11.24-0.33-20.01-0.75-26.76l-0.75-12.25-16.23 0.01zm82.49 41.25c-0.62 1.37-1.13 3.4-1.13 4.5 0 1.15 0.95 2.37 2.25 2.86 1.24 0.48 3.38 0.49 4.75 0.04 1.38-0.45 2.84-1.52 3.25-2.36 0.48-0.99-0.14-2.6-1.75-4.54-1.37-1.65-3.34-3-4.37-3-1.03 0-2.38 1.12-3 2.5zm14.84-0.29c-0.75 0.66-1.28 1.77-1.17 2.49 0.11 0.72 1.33 1.3 2.7 1.3 1.38 0 2.72-0.34 2.98-0.75 0.27-0.41-0.33-1.53-1.33-2.49-1.41-1.36-2.1-1.48-3.18-0.55zm-7.1 13.8l-2.37 2.01c5.43 4.65 7.45 6 8 6 0.55 0 1.79-1.35 2.75-3.01 0.96-1.65 1.75-3.91 1.75-5.01 0-1.66-0.67-2-3.88-2-2.42 0-4.76 0.75-6.25 2.01z"/>
		<path id="Path 4" class="s2" d="m385.54 64.62c-0.48 0.39-0.8 1.09-0.71 1.55 0.09 0.45 1.52 0.83 3.17 0.83 1.91 0 2.88-0.45 2.67-1.25-0.18-0.69-1.21-1.38-2.29-1.54-1.08-0.16-2.36 0.02-2.84 0.41zm-99.13 4.63c-0.3 0.69-0.4 2.15-0.22 3.25q0.33 2.01 2.71 2c1.31 0 2.88-0.75 3.49-1.66 0.85-1.27 0.75-2.05-0.39-3.3-0.83-0.89-2.3-1.61-3.27-1.58-0.98 0.02-2.02 0.6-2.32 1.29z"/>
	</g>
</svg>